PathFileType	4	(X/Y/Z)	62_1_41_p0_0-493_filt_butterworth.trc
DataRate	CameraRate	NumFrames	NumMarkers	Units	OrigDataRate	OrigDataStartFrame	OrigNumFrames
46.0	46.0	6	27	m	46.0	246	493
Frame#	Time	RHip			RKnee			RAnkle			RBigToe			RSmallToe			RHeel			LHip			LKnee			LAnkle			LBigToe			LSmallToe			LHeel			Neck			Head			Nose			RShoulder			RElbow			RWrist			RThumb			RIndex			RPinky			LShoulder			LElbow			LWrist			LThumb			LIndex			LPinky			
		X1	Y1	Z1	X2	Y2	Z2	X3	Y3	Z3	X4	Y4	Z4	X5	Y5	Z5	X6	Y6	Z6	X7	Y7	Z7	X8	Y8	Z8	X9	Y9	Z9	X10	Y10	Z10	X11	Y11	Z11	X12	Y12	Z12	X13	Y13	Z13	X14	Y14	Z14	X15	Y15	Z15	X16	Y16	Z16	X17	Y17	Z17	X18	Y18	Z18	X19	Y19	Z19	X20	Y20	Z20	X21	Y21	Z21	X22	Y22	Z22	X23	Y23	Z23	X24	Y24	Z24	X25	Y25	Z25	X26	Y26	Z26	X27	Y27	Z27	
246	5.3478260869565215	0.35221271685288713	0.4489838812491971	0.2631097784031411	0.3582921427001549	0.7689954403875382	0.5712903402252829	0.3389420164568808	0.9973435589777744	0.8590948181065917	0.3089589717407148	0.9089120068665165	0.9485727166736577	0.35362528514104125	0.8934743120800074	0.94116469904002	0.3326178963127556	1.10625978838147	0.8591806779849253	0.15760195906749533	0.48751891312679574	0.24586734862249673	0.16578996174102043	0.7301719733307006	0.5568052852679073	0.16605879749205882	1.0797019350299133	0.8307188989808785	0.11998463438237049	0.8991741536141418	0.9132602419152779	0.08224917869920152	0.9626141217369566	0.8864773830002266	0.18359988129037733	1.1144571713387244	0.8448458341287776	0.20949721736834848	0.1143299668240942	-0.20312842520910135	0.16634742166651323	-0.07431252712167617	-0.3597051430061449	0.17155297551897414	-0.03406966622773562	-0.2429509338577929	0.3706774091191982	0.14085460063842167	-0.12891193456780198	0.44749117693401685	0.32408842818518335	0.07185488411120351	0.4028850037002638	0.41138873689976413	0.31524364383026626	0.32577560010070716	0.4406866742745655	0.40554759483073566	0.35290774905042654	0.48769004067665683	0.40212272279694533	0.3990280584651463	0.5092095655413853	0.3953647709290953	0.05623800447403088	0.19783043664169753	-0.1370308575436318	0.0355998686376186	0.38408564993438477	0.06987276262456188	0.04958745444006086	0.5323585661932526	0.2892775039814968	0.07978837311832153	0.546536376412025	0.37765234142302373	0.06653794577197733	0.6004941242532373	0.3926823504913741	0.03499534401725005	0.6042400929662763	0.3682463930203551
247	5.369565217391305	0.35233565740026773	0.45032352646950974	0.2643390925706608	0.35852181183232423	0.7683027995378335	0.5711837952596764	0.3389237549611684	0.9971472924015566	0.858889480498807	0.30880786088459267	0.9096986419490986	0.9497561958590157	0.35357398668558143	0.8934825378629423	0.9414915492111369	0.3327465116023621	1.1113946188128514	0.8587009947808808	0.15966523484001555	0.487924180025897	0.24503065753015568	0.16613773458854225	0.7301219500710205	0.5559931749840833	0.16635085665435995	1.078804496557009	0.8297325853585085	0.12019565443547887	0.8995014634849696	0.9139661057816628	0.08221859254080374	0.9624323440716972	0.886464613414455	0.1836135341550551	1.1145518121449693	0.8448315205382542	0.20916085291831651	0.11299642406900894	-0.20416796964039155	0.16633979810991933	-0.07443554729612696	-0.359727759787814	0.1725831966200543	-0.034109501897876204	-0.24316529099198111	0.3737708736739713	0.143278385280344	-0.1288986631010561	0.44766622053569416	0.3168402476532822	0.07495336723605969	0.4007290524213423	0.409908530532072	0.31326010624033385	0.32351721035877545	0.43665029026358915	0.405563428199822	0.34484085018024124	0.4763916647253703	0.4050205898026901	0.3951917483650326	0.5077652883186873	0.39459416006083126	0.0565439094445487	0.19831653139403005	-0.13736304956760775	0.03549102589416303	0.3844724779034593	0.0696626118815082	0.049430094404841904	0.5315063766091284	0.28793976468202775	0.07967073882896317	0.5478662030576461	0.3789643392568518	0.06668112463074076	0.6005552271774786	0.3929834108406675	0.03253999165920824	0.5993386730388838	0.3693199774040802
248	5.391304347826087	0.35234460173320753	0.4510925326895608	0.2655393100383356	0.35887698441491733	0.7690342047600063	0.5712432519150015	0.33905871604789395	0.9973712635661108	0.8588141419011437	0.3087605759842282	0.9097794511387922	0.9500261038730433	0.3537693800873723	0.8935441399872001	0.9415726117894153	0.33295844816608977	1.114114161929629	0.858607251796256	0.16091081031582377	0.48818766208437014	0.24487705997914438	0.16640898690044198	0.7311000506227411	0.5557913613073284	0.16640809219268843	1.0786686026196295	0.8296191530202864	0.11998262851409185	0.8994660375845358	0.9146723183959493	0.08225526285750104	0.9619637009025529	0.886448616019737	0.18363942902015568	1.1147281866652183	0.844802075219027	0.2094517188890878	0.11290757426602888	-0.2054077671496839	0.16763161013566932	-0.07369389155105222	-0.3598795530966897	0.1741101204790718	-0.03465634454798473	-0.24391770162579945	0.3745126570812416	0.14433433655676464	-0.12867380872998413	0.4475661879281264	0.3097795064924169	0.07971133150184233	0.3979361606967876	0.4091216833481368	0.3130168460702893	0.32005558536437884	0.43652244741490354	0.406037364520651	0.3365219717117772	0.46443780871151896	0.408505158755672	0.3877622381150293	0.50395377538582	0.3946837146577894	0.05800543464359434	0.20098208454097719	-0.1389147400997213	0.0356999470505007	0.3846401372644259	0.06957261154918301	0.049460817571302745	0.5314556440120051	0.28704447547417206	0.07952018586106646	0.5514983334791669	0.3775155767380073	0.06679198662375208	0.6001260436028116	0.39304974737476805	0.031132192786542195	0.5960548916301613	0.3706905746894729
249	5.413043478260869	0.3522924860813653	0.4514634155183976	0.26701564105306186	0.3587436798480707	0.7705967863700982	0.5717370723037412	0.33934794647749245	0.9979709710702932	0.8588060833024143	0.30875377666545156	0.9096689429766975	0.9498467743363492	0.3540414765825481	0.8940279430118131	0.9416503172917886	0.33360575567139494	1.1125070868470013	0.8600809338698859	0.1604317423042097	0.48869797477092214	0.24591077353304236	0.16645826566347424	0.731295061871616	0.5558741930841063	0.1663868002296826	1.078837815024923	0.8298004072791364	0.11844021897161924	0.8991657983245008	0.9152216911307218	0.08230441033044882	0.9612421198444523	0.8865267883917894	0.18370161375056251	1.1148937074347947	0.8447370413309231	0.21113565746608454	0.11542207379335451	-0.20729918965236738	0.17112459614834674	-0.07170593548384993	-0.3602957170580686	0.17529756364321483	-0.035582429353882755	-0.24505835638451817	0.3746678235385487	0.14566790476870475	-0.1283005953414068	0.447667002690497	0.30462754516607116	0.08612465139940029	0.3935836948403475	0.40888516957708254	0.3154150503866302	0.3138219210343183	0.4380187087114875	0.40672900617870966	0.3288589984791255	0.454193845498818	0.4119044717642703	0.3792822858670992	0.49925823454647633	0.39616792589739863	0.060178723648832554	0.20497647416997844	-0.1412126333099067	0.036821759485401034	0.3850079699075071	0.06983652264373215	0.049792239372191294	0.5315120752206897	0.2867645103598151	0.07881408831026007	0.5558072831536696	0.3731885259010857	0.06696896315741091	0.5989377137132528	0.39228200907075533	0.030521049026570282	0.5950641101272612	0.37175120802874706
250	5.434782608695652	0.3522612886854625	0.45197073018387895	0.26870339050247183	0.3570708848974332	0.76935912430632	0.5733161379423566	0.338991145344677	0.9971152028996791	0.8588982423205066	0.3088109053448778	0.9096347374948528	0.9496889267011759	0.3535343473041094	0.8934607695430734	0.9418158497916026	0.33436182702149164	1.1062994585441102	0.862317590419519	0.1587602383248174	0.48930519182020626	0.24753757948565389	0.1664255993012586	0.7305652658448769	0.5559021570865623	0.16638588299082918	1.078947567121888	0.8298764330230401	0.11592037827095389	0.8992863552563587	0.9156406344925768	0.08215989727850365	0.9620119043356636	0.8865319401014596	0.1837914558797087	1.114939199290593	0.8446544377553195	0.21357333390034894	0.1196600972493379	-0.2098376489068444	0.1758754345824582	-0.07024076462887408	-0.3607942108009665	0.1763701637602579	-0.03623222841167022	-0.24596373079925207	0.37504064358624	0.1468099271537589	-0.12801196880339638	0.4474864576984807	0.3042094797930455	0.09094949995252717	0.3870927713142569	0.40800843042260587	0.31847726778760416	0.30720496908435824	0.43750562356989675	0.4063580793031049	0.32287661090576286	0.44718598723296404	0.4142329623385201	0.37242527616272925	0.4958610310654466	0.3976566999371155	0.06163515397729403	0.20759225548861937	-0.1427448706103654	0.03884540934778477	0.38577088317320296	0.07050142859130162	0.05024905759886596	0.5308883962673854	0.28674813855591236	0.0778051149365316	0.5630192609611097	0.36866115488237416	0.06704135502451311	0.5987342672460862	0.3906374151331141	0.031697399733173745	0.5982780202891018	0.37235785347002615
251	5.456521739130435	0.35222150287168086	0.4523675767842841	0.2697461015415211	0.3542324800441101	0.7621687970159836	0.5756084540952224	0.33689598054568454	0.9924874024500632	0.8592948484505543	0.30889459071916814	0.9096819858956074	0.9495351969386039	0.35137739028434856	0.8897283736448311	0.942165708278323	0.33386477756404426	1.0987918119476825	0.8631162713210044	0.15717774632900305	0.4891882940465436	0.2488191372826564	0.16630907968115627	0.731043864098524	0.5557793457223987	0.16639299904366273	1.0789588472132428	0.8298363265639954	0.11391309857337457	0.9000980169603696	0.915415272481539	0.08168370286719849	0.966509169854643	0.8857593947663409	0.18386697669388008	1.114886036301859	0.8445948464716126	0.21542699094470968	0.1227412173738689	-0.21169066314346313	0.17955836439234182	-0.07090430839221278	-0.3610756894887418	0.17814121028816612	-0.036368388324932124	-0.24632188845893233	0.3753800101151915	0.14710633025643838	-0.12795831302004834	0.44630633187676816	0.3095395195846604	0.09141083471362241	0.3804863467904871	0.4084523946078936	0.31993107027954376	0.3027665590865462	0.43340297816595935	0.40585626829382987	0.3190685224929809	0.4428768828508181	0.41487817384072845	0.36693823616040655	0.4933400721624993	0.3983714461276036	0.06194693114776324	0.20801829238621886	-0.14304240245112484	0.041195493828886605	0.38626019626526154	0.07055580027347386	0.050702558607662165	0.5303886848248217	0.2869011251635987	0.07680537850628086	0.5748577378970455	0.36578991888353346	0.06657535825329888	0.6024226056336085	0.38854450873234403	0.03617053827398682	0.6101098070575355	0.3713194927458624
